#!OML:ASF F:\VICON\USERDATA\INSTALL\rory3\rory3.ASF
:FULLY-SPECIFIED
:DEGREES
88
root -0.274425203962808 17.504091357144688 54.275252204855526 0.12177861466100126 3.1109341066203626 -2.89303365615962
lfemur -9.693631247456773 -1.2796843064695624 -16.498770383774676
ltibia 78.06809455805544
lfoot 11.037052943434146 -11.36905983941987
ltoes -1.7647878504089762
rfemur -21.486243540100382 3.0078838599453883 30.96898140754731
rtibia 37.22984019369855
rfoot -5.426956727782996 -2.4475047555756797
rtoes 12.389107897678825
lowerback 12.33495160154288 -1.57670852683162 1.3944676899836088
upperback -0.3021885411303903 -1.7955272254557122 3.2419753257799284
thorax -7.200712416128467 -0.8911873950633129 3.040934336015529
lowerneck -17.71832571480269 -2.6537163759848728 -3.794359834041613
upperneck 18.38553629729316 -3.0270221433515916 2.2557069240420025
head 8.708651895154416 -1.370595342314978 1.0139873749069999
lclavicle -2.2671762499071075e-15 6.808662042325099e-16
lhumerus -38.33604808692689 -9.456739696010594 91.77493857155459
lradius 72.07186467759209
lwrist 20.10769493766324
lhand -26.882742707557775 12.200522790944852
lfingers 7.125019999999999
lthumb -0.3550575286070921 42.00006814461829
rclavicle -2.261219860541103e-15 6.85069167573125e-16
rhumerus -41.0169549806574 -7.664497478332578 -86.40116791440326
rradius 61.248853837901116
rwrist -0.9577785468692348
rhand -16.710190628648093 31.380892579957692
rfingers 7.125019999999999
rthumb 9.409922034399811 1.9126769808664363
89
root -0.27921039018431887 17.62855657384682 55.138199285291904 0.1465097865429087 3.0261969474841806 -3.34680381137279
lfemur -15.777075480449012 -0.23186197406153353 -15.814778409081384
ltibia 82.72012627494868
lfoot 6.944940819369046 -7.257202329885464
ltoes -2.5264539458710065
rfemur -18.032952985555205 2.5663242135628543 32.031692902791626
rtibia 36.98813921540245
rfoot -7.636096101409093 -2.6176875809560687
rtoes 10.703807737376419
lowerback 12.399480221832068 -1.3911787772893178 2.048047374695723
upperback -0.31688620934237455 -1.4494070835517365 3.175354185873396
thorax -7.215322233096499 -0.7354105121223593 2.4878065422289275
lowerneck -17.512255041617006 -2.713081340915985 -3.789290801273097
upperneck 18.548107078229226 -3.1252817019987775 2.284911137375038
head 8.743857668918983 -1.4244083604132851 1.0138896362341594
lclavicle -2.27025605381959e-15 6.7870190540314e-16
lhumerus -40.262283466000866 -8.584711816682255 91.74866472191167
lradius 70.06472767766284
lwrist 19.47521001103798
lhand -26.710895173090773 12.49038135926813
lfingers 7.125019999999999
lthumb -0.1856324465302373 42.150852531142206
rclavicle -2.2618479946633223e-15 6.846287653868918e-16
rhumerus -39.17690972157822 -6.36007832930244 -87.55785488423368
rradius 62.194745227102466
rwrist -1.4727671065135925
rhand -16.55153017464964 31.11300617981537
rfingers 7.125019999999999
rthumb 9.495170336064145 1.6041009462276818
90
root -0.254526377465225 17.73409105709948 55.777116852989465 0.4406088685926331 2.516436771958989 -3.6742394560660157
lfemur -21.499513523893764 0.5960034763918585 -15.348342543169036
ltibia 83.2477149399372
lfoot 3.607194916966304 -3.74070637788816
ltoes -4.810066604492926
rfemur -14.671606278827479 2.357701414448773 32.6274585135163
rtibia 36.601821406686675
rfoot -9.549146352301314 -2.699518129043989
rtoes 9.374189408966252
lowerback 12.237799066842632 -1.022108242923795 2.5565377288136837
upperback -0.44163511835261876 -0.9442548756159725 2.9796027514117758
thorax -7.183822409189147 -0.5206273711709759 1.9113480410786519
lowerneck -17.398989593192322 -2.7412024409067755 -3.748375471919438
upperneck 18.838543768295807 -3.1428092236296252 2.2121419349393943
head 8.828901798732174 -1.4449718168862087 0.9852764046570786
lclavicle -2.2678277139831086e-15 6.80404156256546e-16
lhumerus -42.52017447103589 -7.558248515038595 91.58678736733327
lradius 68.37239955052772
lwrist 19.87693576510899
lhand -26.53702471103486 12.668581663997358
lfingers 7.125019999999999
lthumb -0.06155244092729223 42.27143860807543
rclavicle -2.26053651341923e-15 6.855482487882333e-16
rhumerus -37.931207829292184 -4.995171525640715 -88.48010188055183
rradius 63.50963016368708
rwrist -2.20752735976384
rhand -16.397950894398807 30.794709002761465
rfingers 7.125019999999999
rthumb 9.536745240523882 1.2126387966581587
91
root -0.2297483989093559 17.838349225280503 56.22982728243106 0.6471616710923371 2.6089044780695616 -3.6911922269528095
lfemur -26.511479639163984 -0.03210595168526509 -15.21543568260113
ltibia 79.55465176614806
lfoot 1.4311093542968165 -0.8629244757172554
ltoes -6.256647334115684
rfemur -11.268239374319764 1.7986970239856934 32.68559668339119
rtibia 35.85484339314421
rfoot -10.854894712120208 -2.9028154735272564
rtoes 7.6054107065192795
lowerback 12.28971357659368 -0.8498515265730862 2.984835828499363
upperback -0.5460973738639586 -0.74400841125561 2.7331924559793155
thorax -7.237498026508442 -0.46029209341143495 1.434079043156433
lowerneck -17.394782925408485 -2.7829775097310985 -3.7269774136588345
upperneck 18.92736459142388 -3.179171833454788 2.234376181530563
head 8.862879966400891 -1.4589733663660203 0.9855767085872513
lclavicle -2.2681540129201817e-15 6.80178591024645e-16
lhumerus -44.79456289922486 -6.539412511996092 91.35662382272861
lradius 67.0536963948229
lwrist 20.415300324556448
lhand -26.342526092572236 12.64505111129696
lfingers 7.125019999999999
lthumb 0.06899816908907441 42.15968511696862
rclavicle -2.260408517871989e-15 6.85637987586742e-16
rhumerus -36.82483036401721 -3.3578804412244865 -89.31717337737025
rradius 64.95358188678956
rwrist -3.1128458730297384
rhand -16.282632294184143 30.559751244558267
rfingers 7.125019999999999
rthumb 9.522717693380947 0.9879999855593724
92
root -0.20017043550572355 17.90800822366269 56.62158894228749 0.9094397910836214 2.6896060706025615 -3.666479391722109
lfemur -29.927271133548636 -1.3549033644788637 -14.935649650784136
ltibia 72.10545994688302
lfoot 0.4610695371073592 1.21890224362997
ltoes -6.437613148382798
rfemur -8.174136932332651 1.488135109910887 32.463054693562874
rtibia 34.931241462574654
rfoot -11.51418719370889 -2.959610916958139
rtoes 6.132358329769428
lowerback 12.361285259111133 -0.6986977158967995 3.211351340636205
upperback -0.5591594503598641 -0.5802368737767225 2.539100625267376
thorax -7.2662660491286895 -0.37998767623169494 1.1159155254772402
lowerneck -17.434993375148963 -2.8354859077461123 -3.742660551395635
upperneck 18.802689309289704 -3.2220556279827064 2.2809181344050096
head 8.815471316649006 -1.478617693320857 1.0130306293682412
lclavicle -2.267884403341832e-15 6.803685272493013e-16
lhumerus -46.49761816381286 -5.637046486892995 91.19148759453978
lradius 65.97556377113042
lwrist 20.81433377589508
lhand -26.15256699468494 12.302277087687596
lfingers 7.125019999999999
lthumb 0.2358123788584758 41.85689622756444
rclavicle -2.26177688387391e-15 6.846785554508276e-16
rhumerus -35.738627897332336 -1.8520321839926104 -89.88369609821332
rradius 66.20207549297479
rwrist -3.5299785323327844
rhand -16.231752178242257 30.506004976995463
rfingers 7.125019999999999
rthumb 9.369508312833716 0.9274406364365413
93
root -0.16331875321918798 17.996956086522818 56.82212477321638 1.3528414184766984 2.7337275867453377 -3.3579720086221476
lfemur -31.257058374616133 -3.0806091417509203 -14.834298671941905
ltibia 60.73459877553214
lfoot 0.46276362715579555 2.7020364216858437
ltoes -6.191693263883141
rfemur -5.567240572959731 1.4976383432381621 31.770520957485797
rtibia 33.5081243668608
rfoot -11.651001446971513 -2.9235439150877816
rtoes 4.651492545332155
lowerback 12.021800735397246 -0.5821281374421159 3.099133870569444
upperback -0.5860244194691888 -0.5074535694499958 2.3003726949968533
thorax -7.157302153865044 -0.350928085554137 0.9844613250632278
lowerneck -17.532626186337197 -2.8361412353233897 -3.7122542144610184
upperneck 18.75522159978336 -3.2380778578951133 2.3206106777571947
head 8.796284899897884 -1.4822477434810672 1.0340882854799691
lclavicle -2.2657409794689217e-15 6.818729592212326e-16
lhumerus -47.735880126413115 -4.744347004536344 90.96065249625656
lradius 64.55421242613875
lwrist 20.489621902735554
lhand -25.90852894625567 12.20617090961689
lfingers 7.125019999999999
lthumb 0.44694927591402345 41.81786488830841
rclavicle -2.2622880398496493e-15 6.843202215074805e-16
rhumerus -34.80125594487259 -0.8149782898992384 -90.15510751985951
rradius 66.86042492782981
rwrist -3.3964245211747963
rhand -16.133156230933718 30.68785324339266
rfingers 7.125019999999999
rthumb 9.36261239055281 1.339146372489424
